<?xml version="1.0" encoding="UTF-8" standalone="no"?>
<!-- Created with Inkscape (http://www.inkscape.org/) -->

<svg
   xmlns:dc="http://purl.org/dc/elements/1.1/"
   xmlns:cc="http://creativecommons.org/ns#"
   xmlns:rdf="http://www.w3.org/1999/02/22-rdf-syntax-ns#"
   xmlns:svg="http://www.w3.org/2000/svg"
   xmlns="http://www.w3.org/2000/svg"
   xmlns:sodipodi="http://sodipodi.sourceforge.net/DTD/sodipodi-0.dtd"
   xmlns:inkscape="http://www.inkscape.org/namespaces/inkscape"
   width="165.22984"
   height="22"
   viewBox="0 0 165.22984 22"
   id="svg2"
   version="1.1"
   inkscape:version="0.48.5 r10040"
   sodipodi:docname="datewithdata.svg">
  <defs
     id="defs4" />
  <sodipodi:namedview
     id="base"
     pagecolor="#ffffff"
     bordercolor="#666666"
     borderopacity="1.0"
     inkscape:pageopacity="0.0"
     inkscape:pageshadow="2"
     inkscape:zoom="17.812932"
     inkscape:cx="48.50193"
     inkscape:cy="10.707441"
     inkscape:document-units="px"
     inkscape:current-layer="layer1"
     showgrid="false"
     inkscape:object-paths="true"
     showguides="false"
     inkscape:guide-bbox="true"
     inkscape:object-nodes="true"
     inkscape:snap-global="false"
     inkscape:window-width="1680"
     inkscape:window-height="972"
     inkscape:window-x="0"
     inkscape:window-y="25"
     inkscape:window-maximized="1"
     fit-margin-top="0"
     fit-margin-left="0"
     fit-margin-right="0"
     fit-margin-bottom="0">
    <sodipodi:guide
       position="-18.213705,332.78294"
       orientation="0,1"
       id="guide4197" />
    <sodipodi:guide
       position="-18.213705,301.0204"
       orientation="0,1"
       id="guide4199" />
  </sodipodi:namedview>
  <metadata
     id="metadata7">
    <rdf:RDF>
      <cc:Work
         rdf:about="">
        <dc:format>image/svg+xml</dc:format>
        <dc:type
           rdf:resource="http://purl.org/dc/dcmitype/StillImage" />
        <dc:title />
      </cc:Work>
    </rdf:RDF>
  </metadata>
  <g
     inkscape:label="Layer 1"
     inkscape:groupmode="layer"
     id="layer1"
     transform="translate(-79.636723,-468.70314)">
    <g
       id="g3765"
       transform="matrix(0.27538306,0,0,0.27538306,57.706115,355.57181)">
      <path
         inkscape:connector-curvature="0"
         id="path4438"
         style="font-size:medium;font-style:normal;font-variant:normal;font-weight:normal;font-stretch:normal;text-align:start;line-height:125%;letter-spacing:-2.79999995px;word-spacing:0px;writing-mode:lr-tb;text-anchor:start;fill:#222222;fill-opacity:1;stroke:none;font-family:Victors Pixel Font;-inkscape-font-specification:'Victors Pixel Font, Normal'"
         d="m 238.40601,468.7109 -7.18113,0 0,-35.9057 7.18113,0 0,35.9057 z m 0,-14.36229 0,-7.18112 14.29045,0 0,7.18112 -14.29045,0 z m 0,-14.36225 0,-7.18116 21.54341,0 0,7.18116 -21.54341,0 z m 0,28.72454 0,-7.18116 21.54341,0 0,7.18116 -21.54341,0 z m -50.50972,-28.72454 0,-7.18116 35.90565,0 0,7.18116 -35.90565,0 z m 21.54336,28.72454 -7.18112,0 0,-28.72454 7.18112,0 0,28.72454 z m -57.5436,-28.72454 0,-7.18116 21.54341,0 0,7.18116 -21.54341,0 z m 0,14.36225 0,-7.18112 21.54341,0 0,7.18112 -21.54341,0 z m 0,14.36229 -7.18113,0 0,-28.72454 7.18113,0 0,28.72454 z m 28.72456,0 -7.18115,0 0,-28.72454 7.18115,0 0,28.72454 z m -71.9059,0 -7.18114,0 0,-35.9057 7.18114,0 0,35.9057 z m 0,-28.72454 0,-7.18116 21.5434,0 0,7.18116 -21.5434,0 z m 0,28.72454 0,-7.18116 21.5434,0 0,7.18116 -21.5434,0 z m 28.72455,-7.18116 -7.18115,0 0,-21.54338 7.18115,0 0,21.54338 z"
         inkscape:export-xdpi="180"
         inkscape:export-ydpi="180" />
      <path
         inkscape:connector-curvature="0"
         id="path4440"
         style="font-size:medium;font-style:normal;font-variant:normal;font-weight:normal;font-stretch:normal;text-align:start;line-height:125%;letter-spacing:-2.79999995px;word-spacing:0px;writing-mode:lr-tb;text-anchor:start;fill:#222222;fill-opacity:1;stroke:none;font-family:Victors Pixel Font;-inkscape-font-specification:'Victors Pixel Font, Normal'"
         d="m 426.69575,468.7109 -7.18113,0 0,-35.9057 7.18113,0 0,35.9057 z m 0,-14.36229 0,-7.18112 14.36228,0 0,7.18112 -14.36228,0 z m 21.54341,14.36229 -7.18113,0 0,-35.9057 7.18113,0 0,35.9057 z m -72.05315,-28.72454 0,-7.18116 35.90567,0 0,7.18116 -35.90567,0 z m 21.54339,28.72454 -7.18113,0 0,-28.72454 7.18113,0 0,28.72454 z m -28.82609,0 -7.18112,0 0,-35.9057 7.18112,0 0,35.9057 z m -57.46647,-7.18116 -7.18113,0 0,-28.72454 7.18113,0 0,28.72454 z m 0,7.18116 0,-7.18116 14.29045,0 0,7.18116 -14.29045,0 z m 21.54341,0 0,-7.18116 14.29045,0 0,7.18116 -14.29045,0 z m 21.54341,-7.18116 -7.18115,0 0,-28.72454 7.18115,0 0,28.72454 z m -21.54341,0 -7.18115,0 0,-21.54338 7.18115,0 0,21.54338 z"
         inkscape:export-xdpi="180"
         inkscape:export-ydpi="180" />
      <path
         inkscape:connector-curvature="0"
         id="path4442"
         style="font-size:medium;font-style:normal;font-variant:normal;font-weight:normal;font-stretch:normal;text-align:start;line-height:125%;letter-spacing:-2.79999995px;word-spacing:0px;writing-mode:lr-tb;text-anchor:start;fill:#222222;fill-opacity:1;stroke:none;font-family:Victors Pixel Font;-inkscape-font-specification:'Victors Pixel Font, Normal'"
         d="m 629.11591,439.98636 0,-7.18116 21.54341,0 0,7.18116 -21.54341,0 z m 0,14.36225 0,-7.18112 21.54341,0 0,7.18112 -21.54341,0 z m 0,14.36229 -7.18113,0 0,-28.72454 7.18113,0 0,28.72454 z m 28.72454,0 -7.18113,0 0,-28.72454 7.18113,0 0,28.72454 z m -79.23428,-28.72454 0,-7.18116 35.90567,0 0,7.18116 -35.90567,0 z m 21.54339,28.72454 -7.18113,0 0,-28.72454 7.18113,0 0,28.72454 z m -57.54361,-28.72454 0,-7.18116 21.54341,0 0,7.18116 -21.54341,0 z m 0,14.36225 0,-7.18112 21.54341,0 0,7.18112 -21.54341,0 z m 0,14.36229 -7.18113,0 0,-28.72454 7.18113,0 0,28.72454 z m 28.72454,0 -7.18113,0 0,-28.72454 7.18113,0 0,28.72454 z m -71.90589,0 -7.18113,0 0,-35.9057 7.18113,0 0,35.9057 z m 0,-28.72454 0,-7.18116 21.54341,0 0,7.18116 -21.54341,0 z m 0,28.72454 0,-7.18116 21.54341,0 0,7.18116 -21.54341,0 z m 28.72454,-7.18116 -7.18113,0 0,-21.54338 7.18113,0 0,21.54338 z"
         inkscape:export-xdpi="180"
         inkscape:export-ydpi="180" />
      <path
         inkscape:connector-curvature="0"
         style="font-size:medium;font-style:normal;font-variant:normal;font-weight:normal;font-stretch:normal;text-align:start;line-height:125%;letter-spacing:-2.79999995px;word-spacing:0px;writing-mode:lr-tb;text-anchor:start;fill:#222222;fill-opacity:1;stroke:none;font-family:Victors Pixel Font;-inkscape-font-specification:'Victors Pixel Font, Normal'"
         d="m 79.63672,410.81441 0,79.88872 7.181838,0 180.576802,0 0,-7.18184 -180.576802,0 0,-65.52505 180.576802,0 0,-7.18183 -180.576802,0 -3.254654,0 -3.927184,0 z"
         id="path4444"
         inkscape:export-xdpi="180"
         inkscape:export-ydpi="180" />
      <path
         inkscape:connector-curvature="0"
         style="font-size:medium;font-style:normal;font-variant:normal;font-weight:normal;font-stretch:normal;text-align:start;line-height:125%;letter-spacing:-2.79999995px;word-spacing:0px;writing-mode:lr-tb;text-anchor:start;fill:#222222;fill-opacity:1;stroke:none;font-family:Victors Pixel Font;-inkscape-font-specification:'Victors Pixel Font, Normal'"
         d="m 281.96032,410.81441 0,79.88872 7.18183,0 166.65985,0 0,-7.18184 -166.65985,0 0,-65.52505 166.65985,0 0,-7.18183 -166.65985,0 -3.25465,0 -3.92718,0 z"
         id="path4446"
         inkscape:export-xdpi="180"
         inkscape:export-ydpi="180" />
      <path
         inkscape:connector-curvature="0"
         style="font-size:medium;font-style:normal;font-variant:normal;font-weight:normal;font-stretch:normal;text-align:start;line-height:125%;letter-spacing:-2.79999995px;word-spacing:0px;writing-mode:lr-tb;text-anchor:start;fill:#222222;fill-opacity:1;stroke:none;font-family:Victors Pixel Font;-inkscape-font-specification:'Victors Pixel Font, Normal'"
         d="m 470.25893,410.81441 0,79.88872 7.18186,0 197.14462,0 5.05132,0 0,-79.88872 -2.58211,0 -4.59972,0 -195.01411,0 -3.25467,0 -3.92719,0 z m 7.18186,7.18183 195.01411,0 0,65.52505 -195.01411,0 0,-65.52505 z"
         id="path4448"
         inkscape:export-xdpi="180"
         inkscape:export-ydpi="180" />
    </g>
  </g>
</svg>
